<svg xmlns="http://www.w3.org/2000/svg" xmlns:svg="http://www.w3.org/2000/svg" id="svg330" xml:space="preserve" width="682.66669" height="682.66669" viewBox="0 0 682.66669 682.66669"><defs id="defs334"><clipPath clipPathUnits="userSpaceOnUse" id="clipPath344"><path d="M 0,512 H 512 V 0 H 0 Z" id="path342"></path></clipPath></defs><g id="g336" transform="matrix(1.3333333,0,0,-1.3333333,0,682.66667)"><g id="g338"><g id="g340" clip-path="url(#clipPath344)"><g id="g346" transform="translate(497,256)"><path d="m 0,0 c 0,-132.548 -108.451,-241 -241,-241 -132.549,0 -241,108.452 -241,241 0,132.548 108.451,241 241,241 C -108.451,241 0,132.548 0,0 Z" style="fill:none;stroke:#000000;stroke-width:30;stroke-linecap:round;stroke-linejoin:round;stroke-miterlimit:10;stroke-dasharray:none;stroke-opacity:1" id="path348"></path></g><g id="g350" transform="translate(400.5742,148.7515)"><path d="m 0,0 -64.72,51.777 c 6.942,13.683 10.146,31.75 10.146,55.472 h 91 C 36.426,67.063 22.258,29.954 0,0 Z" style="fill:none;stroke:#000000;stroke-width:30;stroke-linecap:round;stroke-linejoin:round;stroke-miterlimit:10;stroke-dasharray:none;stroke-opacity:1" id="path352"></path></g><g id="g354" transform="translate(75,256)"><path d="m 0,0 h 91 c 0,-23.721 3.204,-41.788 10.146,-55.472 l -64.72,-51.777 C 14.168,-77.294 0,-40.185 0,0 Z" style="fill:none;stroke:#000000;stroke-width:30;stroke-linecap:round;stroke-linejoin:round;stroke-miterlimit:10;stroke-dasharray:none;stroke-opacity:1" id="path356"></path></g><g id="g358" transform="translate(85.2422,316)"><path d="M 0,0 C 24.71,69.911 92.385,121 170.758,121 249.131,121 316.806,69.911 341.516,0 h -93.55 C 234.779,21.189 210.558,30 170.758,30 130.958,30 106.736,21.189 93.55,0 Z" style="fill:none;stroke:#000000;stroke-width:30;stroke-linecap:round;stroke-linejoin:round;stroke-miterlimit:10;stroke-dasharray:none;stroke-opacity:1" id="path360"></path></g><g id="g362" transform="translate(155.1348,106.8938)"><path d="m 0,0 75.829,60.657 c 7.619,-0.967 15.824,-1.551 25.036,-1.551 9.212,0 17.417,0.584 25.036,1.551 L 201.73,0 C 172.958,-19.501 138.242,-31.894 100.865,-31.894 63.488,-31.894 28.772,-19.501 0,0 Z" style="fill:none;stroke:#000000;stroke-width:30;stroke-linecap:round;stroke-linejoin:round;stroke-miterlimit:10;stroke-dasharray:none;stroke-opacity:1" id="path364"></path></g><g id="g366" transform="translate(226,256)"><path d="M 0,0 H 60" style="fill:none;stroke:#000000;stroke-width:30;stroke-linecap:round;stroke-linejoin:round;stroke-miterlimit:10;stroke-dasharray:none;stroke-opacity:1" id="path368"></path></g></g></g></g></svg>