<svg xmlns="http://www.w3.org/2000/svg" id="Capa_2" viewBox="0 0 532.07 174.51"><defs><style>      .cls-1 {        fill: #164194;      }    </style></defs><g id="Capa_1-2" data-name="Capa_1"><g><path class="cls-1" d="M58.25,89.39c0,7.51-5.88,9.72-20.55,9.72s-18.53-2.12-18.53-9.81v-29.18c14.24-1.92,19.79-6.52,19.79-6.52L0,38.33v50.32c0,21.47,10.27,25.59,34.02,25.59,28.62,0,42.55-2.29,42.55-25.68v-37.69h-18.33v38.52Z"></path><path class="cls-1" d="M125.73,101.04c-14.85,0-21.65-4.05-23.66-7.62l-17.52,4.59c4.59,10.91,18.9,16.88,39.7,16.88,28.44,0,40.19-9.09,40.19-22.65s-11.66-18.07-28.44-18.07c-9.45,0-12.66.09-17.32.09-5.59,0-13.4-.09-13.4-5.5,0-4.31,7.25-6.42,20.73-6.42,11.28,0,20.91,2.76,22.09,7.44l16.23-5.7c-3.1-9.16-15.12-15.12-38.41-15.12-28.06,0-40.37,7.98-40.37,20.44,0,16.05,18.81,19.44,30.27,19.44,6.69,0,10.81-.18,15.67-.18,6.15,0,13.68.83,13.68,5.59s-6.97,6.8-19.45,6.8Z"></path><path class="cls-1" d="M167.1,112.95h20.44l5.69-14.49h36.14l5.68,14.49h20.28l-27.06-62.09h-34.12l-27.05,62.09ZM206.44,64.8h9.72l7.78,19.91h-25.39l7.89-19.91Z"></path><path class="cls-1" d="M347.59,81.96c0-21.19-8.81-31.09-34.95-31.09h-48.33v62.09h48.33c26.14,0,34.95-9.9,34.95-30.99ZM312.83,96.99h-30.09v-32.09h30.09c10.26,0,15.58,3.02,15.58,16.32,0,12.28-5.32,15.76-15.58,15.76Z"></path><path class="cls-1" d="M400.41,114.98c28.34,0,43.83-8.07,43.83-33.02s-15.5-33.01-43.83-33.01-43.84,8.07-43.84,33.01,15.6,33.02,43.84,33.02ZM400.41,63.71c19.62,0,24.68,4.77,24.68,18.25s-5.06,18.15-24.68,18.15-24.5-4.77-24.5-18.15,5.06-18.25,24.5-18.25Z"></path><path class="cls-1" d="M503.63,74.16c-9.44,0-12.64.09-17.32.09-5.59,0-13.4-.09-13.4-5.5,0-4.23,7.02-6.36,20.1-6.41v7.01c9.09.43,16.33-.14,21.99-1.11,9.74-1.68,14.76-4.56,16.38-5.66-.12-.27-.25-.53-.39-.78-4.22-7.78-15.85-12.74-36.72-12.85h-1.26c-27.69.1-39.81,8.05-39.81,20.44,0,16.05,18.79,19.44,30.25,19.44,6.7,0,10.83-.18,15.69-.18,6.13,0,13.66.83,13.66,5.59s-6.97,6.8-19.44,6.8c-14.87,0-21.65-4.05-23.67-7.62l-17.52,4.59c4.59,10.91,18.9,16.88,39.72,16.88,28.43,0,40.17-9.09,40.17-22.65s-11.66-18.07-28.44-18.07Z"></path><path class="cls-1" d="M252.5,0l7.05,38.06,116.25,3.86S338.87,1.7,252.5,0Z"></path><polygon class="cls-1" points="168.37 165.35 150.66 148.37 146.99 144.84 146.99 145.05 146.99 149.97 146.99 172.38 150.66 172.38 150.66 153.49 168.37 170.48 168.37 170.5 172.04 174.01 172.04 168.88 172.04 146.7 168.37 146.7 168.37 165.35"></polygon><polygon class="cls-1" points="264.89 143.68 260.61 143.68 260.61 172.38 275.19 172.38 275.19 168.63 264.89 168.63 264.89 143.68"></polygon><polygon class="cls-1" points="187.1 146.7 179.09 146.7 179.09 150.45 187.1 150.45 187.1 172.38 191.38 172.38 191.38 150.45 199.4 150.45 199.4 146.7 191.38 146.7 187.1 146.7"></polygon><polygon class="cls-1" points="365.65 146.7 357.64 146.7 357.64 150.45 365.65 150.45 365.65 172.38 369.92 172.38 369.92 150.45 377.94 150.45 377.94 146.7 369.92 146.7 365.65 146.7"></polygon><polygon class="cls-1" points="121.82 146.7 121.82 150.45 121.82 156.32 121.82 160.07 121.82 168.63 121.82 172.38 126.1 172.38 137.87 172.38 137.87 168.63 126.1 168.63 126.1 160.07 137.87 160.07 137.87 156.32 126.1 156.32 126.1 150.45 137.87 150.45 137.87 146.7 126.1 146.7 121.82 146.7"></polygon><path class="cls-1" d="M216.24,160.61c3.66,0,6.63-2.97,6.63-6.62v-.69c0-3.65-2.97-6.6-6.63-6.6h-9.93v25.68h4.28v-11.86l.09.09,10.68,11.77h5.27l-10.68-11.77h.3ZM210.59,157.4v-6.96h4.75c1.8,0,3.25,1.46,3.25,3.24v.47c0,1.8-1.46,3.25-3.25,3.25h-4.75Z"></path><path class="cls-1" d="M435.15,160.61c3.66,0,6.61-2.97,6.61-6.62v-.69c0-3.65-2.95-6.6-6.61-6.6h-9.93v25.68h4.28v-11.77h.07l10.69,11.77h5.27l-10.66-11.77h.28ZM429.5,157.4v-6.96h4.75c1.78,0,3.25,1.46,3.25,3.24v.47c0,1.8-1.47,3.25-3.25,3.25h-4.75Z"></path><path class="cls-1" d="M249.81,160.61l-5.82-11.97-2.25-4.64-2.33,4.62-6.04,11.99-1.89,3.73-4.03,8h4.58l4.03-8h11.01l3.9,8.04h4.57l-3.91-8.04-1.81-3.73ZM237.94,160.61l3.72-7.37,3.57,7.37h-7.29Z"></path><polygon class="cls-1" points="308.05 143.68 305.24 148.89 295.97 166.03 286.7 148.9 283.89 143.69 282.85 150.78 279.7 172.29 283.97 172.29 285.85 156.21 293.65 170.31 295.98 174.51 298.29 170.32 306.09 156.21 307.97 172.29 312.25 172.29 309.09 150.79 308.05 143.68"></polygon><path class="cls-1" d="M335.58,146.16c-9.27,0-16.8,5.97-16.8,13.33s7.53,13.35,16.8,13.35,16.78-5.99,16.78-13.35-7.52-13.33-16.78-13.33ZM335.58,169.37c-6.86,0-12.41-4.43-12.41-9.87s5.55-9.85,12.41-9.85,12.41,4.42,12.41,9.85-5.57,9.87-12.41,9.87Z"></path><path class="cls-1" d="M86.63,159.5c0,7.37,7.52,13.35,16.8,13.35,3.81,0,7.34-1.01,10.15-2.72v-4.14c-2.34,2.03-5.77,3.3-9.59,3.3-7.06,0-12.8-4.38-12.8-9.78s5.74-9.78,12.8-9.78c3.81,0,7.24,1.27,9.59,3.3v-4.14c-2.82-1.71-6.34-2.72-10.15-2.72-9.28,0-16.8,5.97-16.8,13.35Z"></path><path class="cls-1" d="M400.17,146.16c-9.28,0-16.8,5.97-16.8,13.33s7.51,13.35,16.8,13.35,16.79-5.99,16.79-13.35-7.52-13.33-16.79-13.33ZM400.17,169.37c-6.85,0-12.42-4.43-12.42-9.87s5.56-9.85,12.42-9.85,12.39,4.42,12.39,9.85-5.55,9.87-12.39,9.87Z"></path><path class="cls-1" d="M99.13,31.97c4.52-.54,9.34-.97,14.49-1.29,1.78-.12,7.95-.33,10.19-.33l12.27-8.52-14.04-9.75L11.16,33.05l35.76,14c4.25-2.55,20.76-11.3,52.22-15.08Z"></path><path class="cls-1" d="M139.78,30.36c1.44,0,110.69,8.03,110.69,8.03L243.39.06c-41.14-.8-104.26,8.82-108.96,9.53l17.64,12.24-12.28,8.53Z"></path></g></g></svg>