<svg xmlns="http://www.w3.org/2000/svg" id="Capa_2" viewBox="0 0 191.73 66.45"><defs><style>      .cls-1 {        fill: #164194;      }    </style></defs><g id="info"><g><g><path class="cls-1" d="M29.47.48v21.84c0,10.87-5.97,15.39-14.12,15.39S1.24,33.19,1.24,22.37V.48h7.46v21.89c0,6.29,2.08,9.06,6.66,9.06s6.66-2.77,6.66-9.06V.48h7.46Z"></path><path class="cls-1" d="M55.84,10.01c-1.6-2.5-3.52-3.73-7.24-3.73-3.36,0-5.17,1.54-5.17,4.05,0,2.88,2.34,4.16,7.24,5.38,7.67,1.92,11.13,4.79,11.13,11.29,0,6.02-4.05,10.71-12.68,10.71-6.45,0-10.92-1.76-14.17-6.02l5.7-3.94c1.97,2.45,4.21,3.68,7.99,3.68,4.26,0,5.7-1.86,5.7-4.1,0-2.56-1.54-4-7.51-5.54-7.24-1.92-10.87-5.38-10.87-11.45S39.81,0,48.54,0c5.86,0,10.28,1.97,12.89,6.02l-5.59,4Z"></path><path class="cls-1" d="M63.51,37.23L76.29.48h7.14l12.78,36.76h-7.94l-2.24-6.98h-12.3l-2.24,6.98h-7.99ZM75.71,23.97h8.31l-4.16-12.94-4.15,12.94Z"></path><path class="cls-1" d="M99.68,37.23V.48h13.05c8.31,0,14.12,4.26,14.12,15.98v4.79c0,11.67-5.81,15.98-14.12,15.98h-13.05ZM119.39,21.25v-4.79c0-6.34-1.7-9.64-6.66-9.64h-5.59v24.13h5.59c4.95,0,6.66-3.36,6.66-9.69Z"></path><path class="cls-1" d="M145.92,37.71c-8.26,0-14.06-5.01-14.06-16.25v-5.22c0-11.35,5.81-16.25,14.06-16.25s14.12,4.9,14.12,16.25v5.22c0,11.24-5.81,16.25-14.12,16.25ZM139.31,21.47c0,7.03,2.29,9.96,6.61,9.96s6.66-2.93,6.66-9.96v-5.22c0-7.03-2.34-9.96-6.66-9.96s-6.61,2.93-6.61,9.96v5.22Z"></path><path class="cls-1" d="M185.28,10.01c-1.6-2.5-3.52-3.73-7.24-3.73-3.36,0-5.17,1.54-5.17,4.05,0,2.88,2.34,4.16,7.24,5.38,7.67,1.92,11.13,4.79,11.13,11.29,0,6.02-4.05,10.71-12.68,10.71-6.45,0-10.92-1.76-14.17-6.02l5.7-3.94c1.97,2.45,4.21,3.68,7.99,3.68,4.26,0,5.7-1.86,5.7-4.1,0-2.56-1.54-4-7.51-5.54-7.24-1.92-10.87-5.38-10.87-11.45s3.84-10.33,12.57-10.33c5.86,0,10.28,1.97,12.89,6.02l-5.59,4Z"></path></g><g><path class="cls-1" d="M12.54,50.57c-.43-2.13-1.67-3.44-3.9-3.44-2.65,0-4.06,1.8-4.06,6.12v3.21c0,4.19,1.41,6.12,4.06,6.12,2.29,0,3.41-1.15,3.9-3.44h4.36c-.75,5.08-3.6,7.3-8.25,7.3-5.08,0-8.65-3.08-8.65-9.99v-3.21c0-6.97,3.57-9.99,8.65-9.99,4.49,0,7.53,2.36,8.28,7.3h-4.39Z"></path><path class="cls-1" d="M32.25,63.67c-1.15,2-3.05,2.78-5.99,2.78-4.91,0-7.27-3.18-7.27-7.4v-2.23c0-4.94,2.49-7.33,6.75-7.33,4.62,0,6.75,2.69,6.75,7.66v1.87h-9.33c.03,2.26.75,3.9,3.08,3.9,1.74,0,2.29-.52,2.91-1.41l3.11,2.16ZM23.15,56.04h5.14c-.1-2.13-.95-3.01-2.52-3.01-1.67,0-2.46,1.15-2.62,3.01Z"></path><path class="cls-1" d="M35.49,49.78h4.09v1.38c.62-.82,1.93-1.67,3.77-1.67,3.31,0,5.99,1.57,5.99,6.42v10.25h-4.16v-9.59c0-2.55-.92-3.47-2.62-3.47-1.93,0-2.88,1.28-2.88,3.44v9.63h-4.19v-16.37Z"></path><path class="cls-1" d="M51.5,49.78h2.1v-3.6h4.16v3.6h3.21v3.54h-3.21v6.84c0,1.64.33,2.32,1.87,2.32h1.34v3.67h-1.77c-3.96,0-5.6-1.11-5.6-5.34v-7.5h-2.1v-3.54Z"></path><path class="cls-1" d="M72.42,54.33c-.43-.62-1.01-1.24-2.06-1.24-1.57,0-2.62,1.15-2.62,3.44v9.63h-4.19v-16.37h4.09v1.38c.56-.82,1.64-1.67,3.57-1.67s3.44.85,4.42,2.55l-3.21,2.29Z"></path><path class="cls-1" d="M82.21,56.33h3.24v-.95c0-1.83-.56-2.42-2.91-2.42-1.6,0-2.39.23-3.08,1.31l-2.95-2.06c1.21-2,3.05-2.72,6.42-2.72,4.22,0,6.61,1.24,6.61,5.93v10.74h-4.09v-1.44c-.65,1.11-1.64,1.74-3.54,1.74-3.41,0-5.76-1.8-5.76-5.14s2.62-4.98,6.06-4.98ZM85.45,59.41h-2.75c-1.7,0-2.46.56-2.46,1.83s.95,1.83,2.39,1.83c1.9,0,2.82-.82,2.82-3.05v-.62Z"></path><path class="cls-1" d="M92.88,43.56h4.19v16.41c0,1.77.52,2.59,2.29,2.59v3.6c-4.42,0-6.48-1.15-6.48-5.24v-17.35Z"></path><path class="cls-1" d="M121.6,55.87l6.29-12.31h4.35v22.59h-4.39v-14.02l-4.91,9.95h-2.78l-4.85-9.86v13.92h-4.36v-22.59h4.29l6.35,12.31Z"></path><path class="cls-1" d="M149.69,58.92c0,4.49-2.13,7.53-7.07,7.53s-7.07-2.95-7.07-7.53v-1.96c0-4.91,2.59-7.47,7.07-7.47s7.07,2.55,7.07,7.47v1.96ZM145.53,58.79v-1.7c0-2.62-.85-4.06-2.91-4.06s-2.91,1.44-2.91,4.06v1.7c0,2.36.59,4.13,2.91,4.13s2.91-1.77,2.91-4.13Z"></path><path class="cls-1" d="M151.26,49.78h2.1v-3.6h4.16v3.6h3.21v3.54h-3.21v6.84c0,1.64.33,2.32,1.87,2.32h1.34v3.67h-1.77c-3.96,0-5.6-1.11-5.6-5.34v-7.5h-2.1v-3.54Z"></path><path class="cls-1" d="M176.86,58.92c0,4.49-2.13,7.53-7.07,7.53s-7.07-2.95-7.07-7.53v-1.96c0-4.91,2.59-7.47,7.07-7.47s7.07,2.55,7.07,7.47v1.96ZM172.7,58.79v-1.7c0-2.62-.85-4.06-2.91-4.06s-2.91,1.44-2.91,4.06v1.7c0,2.36.59,4.13,2.91,4.13s2.91-1.77,2.91-4.13Z"></path><path class="cls-1" d="M188.52,54.33c-.43-.62-1.02-1.24-2.06-1.24-1.57,0-2.62,1.15-2.62,3.44v9.63h-4.19v-16.37h4.09v1.38c.56-.82,1.64-1.67,3.57-1.67s3.44.85,4.42,2.55l-3.21,2.29Z"></path></g></g></g></svg>